# xmcd
#
# Track frame offsets: 
#        150
#        12774
#        25975
#        41753
#        53549
#        64270
#        80371
#        97322
#        119208
#        132605
#        146024
#        161392
#        176428
#        188215
#        198205
#        211689
#        224034
#        242630
#        258888
#        273734
#
# Disc length: 3821 seconds
#
# Revision: 2
# Processed by: cddbd v1.5.2PL0 Copyright (c) Steve Scherf et al.
# Submitted via: ExactAudioCopy v1.3
#
DISCID=2e0eeb14
DTITLE=Various Artist - Country Songs
DYEAR=2010
DGENRE=Country
TTITLE0=Johnny Cash - Ring of fire
TTITLE1=Lynn Anderson - Rose Garden
TTITLE2=Brenda Lee - You are the one that I want
TTITLE3=Kenny Rogers - Me and Bobby Mc Gee
TTITLE4=Roger Miller - King of the road
TTITLE5=Don Gibson - Green, green gras of home
TTITLE6=Lynn Anderson - Blue bayou
TTITLE7=Willie Nelson - City of New Orleans
TTITLE8=Willie Nelson - Fever
TTITLE9=Glen Campell - Rhinestone cowboy
TTITLE10=Kenny Rogers - For a good time
TTITLE11=Lynn Anderson - Desperado
TTITLE12=Wanda Jackson - Sweet dreams
TTITLE13=Brenda Lee - I am sorry
TTITLE14=Kenny Rogers - Ruby don't take your love to town
TTITLE15=Lynn Anderson - Stand by your man
TTITLE16=Bellamy Brothers - If I said you have a beautiful body
TTITLE17=Billie Joe Spears - Blanket on the ground
TTITLE18=Frankie Lane - Sixteen's tons
TTITLE19=Stu Stevens - Love me tender
EXTD=
EXTT0=
EXTT1=
EXTT2=
EXTT3=
EXTT4=
EXTT5=
EXTT6=
EXTT7=
EXTT8=
EXTT9=
EXTT10=
EXTT11=
EXTT12=
EXTT13=
EXTT14=
EXTT15=
EXTT16=
EXTT17=
EXTT18=
EXTT19=
PLAYORDER=
